inDegrees=no
num_controls=7
num_derivatives=13
num_iterations=125
num_multipliers=7
num_parameters=0
num_slacks=7
num_states=26
objective=0.476968
objective_accelerations=0.044697
objective_balance=0.003626
objective_effort=0.040619
objective_height=0.382370
objective_ligament=0.005656
solver_duration=1762.859559
status=Solve_Succeeded
success=true
DataType=double
version=3
OpenSimVersion=4.5
endheader
time	/jointset/ground_pelvis/pelvis_tilt/value	/jointset/ground_pelvis/pelvis_tx/value	/jointset/ground_pelvis/pelvis_ty/value	/jointset/hip_l/hip_flexion_l/value	/jointset/hip_l/hip_adduction_l/value	/jointset/hip_l/hip_rotation_l/value	/jointset/back/lumbar_extension/value	/jointset/patellofemoral_l/patellar_flexion_l/value	/jointset/knee_l/knee_flexion_l/value	/jointset/knee_l/knee_adduction_l/value	/jointset/knee_l/knee_rotation_l/value	/jointset/ankle_l/ankle_angle_l/value	/jointset/subtalar_l/subtalar_angle_l/value	/jointset/ground_pelvis/pelvis_tilt/speed	/jointset/ground_pelvis/pelvis_tx/speed	/jointset/ground_pelvis/pelvis_ty/speed	/jointset/hip_l/hip_flexion_l/speed	/jointset/hip_l/hip_adduction_l/speed	/jointset/hip_l/hip_rotation_l/speed	/jointset/back/lumbar_extension/speed	/jointset/patellofemoral_l/patellar_flexion_l/speed	/jointset/knee_l/knee_flexion_l/speed	/jointset/knee_l/knee_adduction_l/speed	/jointset/knee_l/knee_rotation_l/speed	/jointset/ankle_l/ankle_angle_l/speed	/jointset/subtalar_l/subtalar_angle_l/speed	/forceset/tau_hip_flexion_l	/forceset/tau_hip_adduction_l	/forceset/tau_hip_rotation_l	/forceset/tau_knee_flexion_l	/forceset/tau_ankle_angle_l	/forceset/tau_subtalar_angle_l	/forceset/tau_lumbar_extension	lambda_cid13_p0	lambda_cid13_p1	lambda_cid13_p2	lambda_cid13_p3	lambda_cid13_p4	lambda_cid13_p5	lambda_cid14_p0	/jointset/ground_pelvis/pelvis_tilt/accel	/jointset/ground_pelvis/pelvis_tx/accel	/jointset/ground_pelvis/pelvis_ty/accel	/jointset/hip_l/hip_flexion_l/accel	/jointset/hip_l/hip_adduction_l/accel	/jointset/hip_l/hip_rotation_l/accel	/jointset/back/lumbar_extension/accel	/jointset/patellofemoral_l/patellar_flexion_l/accel	/jointset/knee_l/knee_flexion_l/accel	/jointset/knee_l/knee_adduction_l/accel	/jointset/knee_l/knee_rotation_l/accel	/jointset/ankle_l/ankle_angle_l/accel	/jointset/subtalar_l/subtalar_angle_l/accel	gamma_cid13_p0	gamma_cid13_p1	gamma_cid13_p2	gamma_cid13_p3	gamma_cid13_p4	gamma_cid13_p5	gamma_cid14_p0
0.5	-0.09447797820397311	-0.0420893473712283	0.8058104458291575	0.9337921123080906	-0.3294293843662437	-0.07812963648369343	-0.7912251788544288	0.9254121687139399	0.9254121687139086	-0.1018846902501441	-0.1744989316164507	0.150618948059611	0.01418897199567486	-0.1260434069888021	-0.1573576059140258	-0.4195450659550116	1.603434854839504	-0.02900521784751406	0.5631666949350267	-0.8370495570137205	1.791767850695467	1.7917678506955	0.1543586316175163	0.0002435393000542634	0.4366024699898252	0.1177056436058683	-0.2710950883179246	0.0251621137934538	-0.005036190217195904	-0.2495369333192931	0.08839672093348645	0.04159943529929224	0.3276982545836731	-15.80911075177066	-16.7249819254896	3.841413116294875	-9.700755760753973	-701.4052417608764	-71.30958180942976	-9.584345211599798	0.2961219603851123	0.6815122777369598	-0.1965767495410295	-1.524024369455751	0.3264298589811869	-0.5162964952155199	1.904142160240881	-1.415107674819134	-1.415107674819141	-0.2181044189217627	-0.006900281477187806	-0.258214196914516	0.3397675213526981	-2.569765184068999e-07	-1.328996097438402e-07	1.565445042026406e-06	1.500193155582137e-07	-2.853776527498028e-07	-8.403710861561868e-08	-2.183395283766602e-07
0.51	-0.09572344685741531	-0.0436288408391646	0.8016061079726438	0.9497478706017312	-0.3297039097824953	-0.07252292489011208	-0.7994996381526176	0.9432562384527865	0.9432562384527907	-0.1003545149404819	-0.1744966971228485	0.1549709611151104	0.01538174922562687	-0.1230333009190589	-0.1505416305536744	-0.4212258243135905	1.58749668973667	-0.02590500976903828	0.5580990060531342	-0.8177595361707662	1.776784881422888	1.776784881422903	0.1516840312866032	0.0002002347006768079	0.4337245066614366	0.1208236821105435	-0.277250262841841	0.02551159016659361	-0.005176716771060398	-0.2532578870872296	0.08736603372255242	0.04162266626212715	0.3338942727607276	-16.40619868684112	-16.56057940988873	3.735307028569336	-9.447190759118078	-705.9901213439812	-71.11172058057448	-8.855624595460082	0.3059846265731972	0.6815891530702971	-0.1393783816262328	-1.661761305082816	0.3008284438277321	-0.5136975044146892	1.953847014352674	-1.579031385469615	-1.579031385472449	-0.2909864054698579	-0.003208250058257014	-0.3139286216980183	0.2937377001915314	-2.483321684788498e-07	-1.302668372813316e-07	1.528155833188918e-06	1.457604719730153e-07	-2.729032794405077e-07	-5.56200400997971e-08	-2.142366510926042e-07
0.52	-0.09693830851090453	-0.04510018475592029	0.7973878519320222	0.9655376374994613	-0.3299476306856552	-0.06696922866929443	-0.8075787142487714	0.9609426505325096	0.9609426505325501	-0.09885085534718765	-0.1744949282154162	0.1592919262931461	0.0166048899776588	-0.119922006997136	-0.1437276956779041	-0.4223287027765829	1.570236575658412	-0.02284431522868229	0.5525636203816967	-0.7979729166066082	1.760236318870612	1.760236318870608	0.149055488343939	0.0001504220656902081	0.4303928944971681	0.123778348021883	-0.2834054373657613	0.02586106653973141	-0.005317243324946729	-0.2569788408551671	0.08633534651161809	0.04164589722495999	0.3400902909377796	-17.00528244367409	-16.39592412772343	3.629272543846677	-9.23885486465745	-710.6368116147802	-70.96599204796632	-8.129154774632548	0.3163595308211157	0.6811041808207059	-0.08100077042373559	-1.788414164540562	0.3185271513572366	-0.6098358531245738	2.003461904481687	-1.728226330758819	-1.728226330758817	-0.2088929412719715	-0.008201888599017545	-0.3489439640905604	0.3070930026855577	-2.464663717257081e-07	-1.959950106514396e-07	1.480372604001934e-06	1.329514105652093e-07	-2.670739161927716e-07	-4.951519703521452e-08	-2.175878233834112e-07
0.53	-0.09812154606597615	-0.04650343016800347	0.7931614667782009	0.9811482741077249	-0.3301610908536725	-0.06147311184086263	-0.8154575454136094	0.9784559724526918	0.9784559724527155	-0.09737348557277326	-0.1744938664652508	0.1635774176257064	0.01785660660599417	-0.1167082219939552	-0.1369245156507878	-0.4228511008315053	1.551678366906669	-0.01986332632952114	0.5466173209969846	-0.777719329478555	1.74218795081962	1.742187950819588	0.1463936641689254	6.801594905109451e-05	0.4266421501472159	0.1265293787598295	-0.2893560813726859	0.02605918325878791	-0.00540473930631601	-0.2607821895678987	0.0853527076965975	0.04155784009653291	0.3460878596492588	-17.58886666644707	-16.17985797233178	3.508424218562091	-8.991365546914702	-715.1865784840951	-70.75925208219014	-7.414597351315238	0.326457510877105	0.6794808214458509	-0.02332805203263619	-1.921411050342837	0.2853532941597594	-0.5935935725908088	2.047405149367584	-1.879115324532142	-1.879115324536284	-0.2985665930262518	-0.007058469453880766	-0.3976254089551329	0.2536344921170317	-2.377169490987593e-07	-2.026357767312428e-07	1.437199537119693e-06	1.267912047039408e-07	-2.54906060575374e-07	-2.517720258802708e-08	-2.138658129775908e-07
0.54	-0.0992721318658593	-0.04783873259825784	0.7889327638980292	0.9965669512644958	-0.3303452474257074	-0.05603777132456544	-0.8231316211006874	0.9957816160359115	0.9957816160359201	-0.0959234819275894	-0.1744933884755023	0.1678235043670652	0.01913473881826242	-0.1133916559583432	-0.1301390993121417	-0.4227922480466926	1.531844685360857	-0.01698359603178915	0.5404083579544194	-0.7570218210544797	1.722700651478118	1.722700651478059	0.143582262497503	3.366998211145479e-05	0.4225119762569596	0.1290614648084893	-0.2953067253796142	0.02625729997783979	-0.005492235287690791	-0.2645855382806321	0.08437006888157551	0.04146978296810003	0.3520854283607357	-18.17391767810959	-15.96693409511613	3.391960646898825	-8.794913501262073	-719.7857341493365	-70.60898725695908	-6.734038683911498	0.3369157373074288	0.6775514431266082	0.03524939752323709	-2.043508723354446	0.2982754310714133	-0.6623685846951639	2.09224616368616	-2.016012588860652	-2.01601258886065	-0.2388084405537363	0.001410141340876896	-0.4248298721514178	0.2633040648282286	-2.213515999731305e-07	-1.439032411281549e-07	1.399127075340574e-06	1.279871794473523e-07	-2.357254048894148e-07	1.93336401973617e-08	-2.023181536308209e-07
0.55	-0.100389068274128	-0.04910633884117623	0.784707563373049	1.011781085083117	-0.3305009754210363	-0.05066609871860443	-0.8305966786539511	1.012905353941157	1.012905353941148	-0.09450184578486095	-0.1744930671041038	0.1720264854487894	0.02043727584156121	-0.1099786324707611	-0.1233916725810135	-0.4221492688102619	1.510777074266254	-0.01417408497916081	0.5338470557997163	-0.735936009980341	1.701816367039087	1.701816367039018	0.1407599665529646	2.106920521000972e-05	0.4180258338379496	0.1314156017682207	-0.3009892872242905	0.02637311013876796	-0.005540694027821275	-0.2684249408063882	0.08327147465991305	0.04126051946422473	0.3577818234235	-18.79701381657099	-15.69055524429324	3.260634947794184	-8.461128626241978	-724.2458220293277	-70.38343102253175	-6.089443495848593	0.3460246604519814	0.6719355195204456	0.09356535489631287	-2.169164425673105	0.2702863697144923	-0.665056001892143	2.124800521996004	-2.159181547272941	-2.159181547274372	-0.3016977387394801	-0.003750678804110657	-0.46926414756938	0.2167738376085543	-2.041632923325959e-07	-8.457878984910922e-08	1.353697812955928e-06	1.285264922249008e-07	-2.163520570428774e-07	6.036523538716608e-08	-1.896070675613034e-07
